# Blender v3.0.1 OBJ File: 'ThesisGameAssets.blend'
# www.blender.org
mtllib SpotLight.mtl
o LightCone_Cylinder
v -0.000000 2.373080 0.776912
v -0.000001 0.004415 23.152321
v 0.034287 2.366469 0.776912
v 2.170016 0.004415 22.515375
v 0.064438 2.347434 0.776912
v 4.078299 0.004415 20.681360
v 0.086817 2.318270 0.776912
v 5.494678 0.004415 17.871477
v 0.098725 2.282495 0.776912
v 6.248318 0.004416 14.424652
v 0.098725 2.244424 0.776912
v 6.248318 0.004416 10.756618
v 0.086817 2.208649 0.776912
v 5.494678 0.004416 7.309790
v 0.064438 2.179485 0.776912
v 4.078299 0.004416 4.499909
v 0.034287 2.160450 0.776912
v 2.170018 0.004416 2.665893
v -0.000000 2.153839 0.776912
v -0.000002 0.004416 2.028946
v -0.034287 2.160450 0.776912
v -2.170019 0.004416 2.665893
v -0.064438 2.179485 0.776912
v -4.078300 0.004416 4.499909
v -0.086817 2.208649 0.776912
v -5.494679 0.004416 7.309790
v -0.098725 2.244424 0.776912
v -6.248320 0.004416 10.756618
v -0.098725 2.282495 0.776912
v -6.248320 0.004416 14.424652
v -0.086817 2.318270 0.776912
v -5.494679 0.004415 17.871477
v -0.064438 2.347434 0.776912
v -4.078300 0.004415 20.681351
v -0.034287 2.366469 0.776912
v -2.170021 0.004415 22.515375
v -0.000000 1.780914 6.370764
v -0.000001 1.188748 11.964618
v -0.000001 0.596581 17.558470
v 1.636084 0.594929 17.080759
v 1.102151 1.185442 11.646144
v 0.568219 1.775956 6.211528
v 3.074834 0.590170 15.705249
v 2.071368 1.175925 10.729136
v 1.067903 1.761679 5.753024
v 4.142713 0.582879 13.597836
v 2.790748 1.161343 9.324195
v 1.438782 1.739806 5.050553
v 4.710919 0.573935 11.012717
v 3.173521 1.143455 7.600782
v 1.636123 1.712975 4.188847
v 4.710919 0.564418 8.261692
v 3.173521 1.124420 5.766765
v 1.636123 1.684422 3.271839
v 4.142713 0.555474 5.676570
v 2.790748 1.106533 4.043351
v 1.438782 1.657591 2.410132
v 3.074834 0.548183 3.569160
v 2.071368 1.091951 2.638411
v 1.067903 1.635718 1.707662
v 1.636085 0.543424 2.193648
v 1.102152 1.082433 1.721403
v 0.568219 1.621441 1.249158
v -0.000001 0.541772 1.715938
v -0.000001 1.079128 1.402929
v -0.000000 1.616483 1.089921
v -1.636086 0.543424 2.193648
v -1.102153 1.082433 1.721403
v -0.568220 1.621441 1.249158
v -3.074835 0.548183 3.569160
v -2.071369 1.091951 2.638411
v -1.067904 1.635718 1.707662
v -4.142714 0.555474 5.676570
v -2.790748 1.106533 4.043351
v -1.438783 1.657591 2.410132
v -4.710921 0.564418 8.261692
v -3.173522 1.124420 5.766765
v -1.636123 1.684422 3.271839
v -4.710921 0.573935 11.012717
v -3.173522 1.143455 7.600782
v -1.636123 1.712975 4.188847
v -4.142714 0.582879 13.597836
v -2.790748 1.161343 9.324195
v -1.438783 1.739806 5.050553
v -3.074835 0.590170 15.705242
v -2.071369 1.175925 10.729133
v -1.067904 1.761679 5.753022
v -1.636088 0.594929 17.080759
v -1.102154 1.185442 11.646144
v -0.568220 1.775956 6.211528
v -0.000001 0.399193 19.423086
v -0.000001 0.201804 21.287703
v 1.992039 0.201253 20.703836
v 1.814061 0.398091 18.892298
v 3.743811 0.199667 19.022655
v 3.409322 0.394918 17.363951
v 5.044024 0.197237 16.446930
v 4.593369 0.390058 15.022384
v 5.735852 0.194255 13.287340
v 5.223386 0.384095 12.150029
v 5.735852 0.191083 9.924976
v 5.223386 0.377750 9.093334
v 5.044024 0.188102 6.765384
v 4.593369 0.371788 6.220977
v 3.743811 0.185672 4.189659
v 3.409322 0.366927 3.879409
v 1.992041 0.184085 2.508478
v 1.814063 0.363755 2.351063
v -0.000002 0.183534 1.924610
v -0.000001 0.362653 1.820274
v -1.992042 0.184085 2.508478
v -1.814064 0.363755 2.351063
v -3.743812 0.185672 4.189659
v -3.409323 0.366927 3.879409
v -5.044024 0.188102 6.765384
v -4.593369 0.371788 6.220977
v -5.735853 0.191083 9.924976
v -5.223387 0.377750 9.093334
v -5.735853 0.194255 13.287340
v -5.223387 0.384095 12.150029
v -5.044024 0.197237 16.446930
v -4.593369 0.390058 15.022384
v -3.743812 0.199667 19.022648
v -3.409323 0.394918 17.363945
v -1.992043 0.201253 20.703836
v -1.814065 0.398091 18.892298
v -0.000001 0.892665 14.761544
v 1.369118 0.890185 14.363452
v 2.573101 0.883047 13.217193
v 3.466730 0.872111 11.461016
v 3.942220 0.858695 9.306750
v 3.942220 0.844419 7.014228
v 3.466730 0.831003 4.859961
v 2.573101 0.820067 3.103785
v 1.369119 0.812929 1.957525
v -0.000001 0.810450 1.559434
v -1.369120 0.812929 1.957525
v -2.573102 0.820067 3.103785
v -3.466731 0.831003 4.859961
v -3.942221 0.844419 7.014228
v -3.942221 0.858695 9.306750
v -3.466731 0.872111 11.461016
v -2.573102 0.883047 13.217187
v -1.369121 0.890185 14.363452
vt 1.000000 0.958333
vt 1.000000 1.000000
vt 0.944444 1.000000
vt 0.944444 0.958333
vt 0.888889 1.000000
vt 0.888889 0.958333
vt 0.833333 1.000000
vt 0.833333 0.958333
vt 0.777778 1.000000
vt 0.777778 0.958333
vt 0.722222 1.000000
vt 0.722222 0.958333
vt 0.666667 1.000000
vt 0.666666 0.958333
vt 0.611111 1.000000
vt 0.611111 0.958333
vt 0.555555 1.000000
vt 0.555555 0.958333
vt 0.500000 1.000000
vt 0.500000 0.958333
vt 0.444444 1.000000
vt 0.444444 0.958333
vt 0.388889 1.000000
vt 0.388889 0.958333
vt 0.333333 1.000000
vt 0.333333 0.958333
vt 0.277778 1.000000
vt 0.277778 0.958333
vt 0.222222 1.000000
vt 0.222222 0.958333
vt 0.166666 1.000000
vt 0.166666 0.958333
vt 0.111111 1.000000
vt 0.111111 0.958333
vt 0.055555 1.000000
vt 0.055555 0.958333
vt -0.000000 1.000000
vt -0.000000 0.958333
vt 0.055555 0.500000
vt 0.055555 0.625000
vt -0.000000 0.625000
vt -0.000000 0.500000
vt 0.055555 0.750000
vt -0.000000 0.750000
vt 0.055555 0.812500
vt 0.055555 0.875000
vt -0.000000 0.875000
vt -0.000000 0.812500
vt 0.111111 0.500000
vt 0.111111 0.625000
vt 0.111111 0.750000
vt 0.111111 0.812500
vt 0.111111 0.875000
vt 0.166666 0.500000
vt 0.166666 0.625000
vt 0.166666 0.750000
vt 0.166666 0.812500
vt 0.166666 0.875000
vt 0.222222 0.500000
vt 0.222222 0.625000
vt 0.222222 0.750000
vt 0.222222 0.812500
vt 0.222222 0.875000
vt 0.277778 0.500000
vt 0.277778 0.625000
vt 0.277778 0.750000
vt 0.277778 0.812500
vt 0.277778 0.875000
vt 0.333333 0.500000
vt 0.333333 0.625000
vt 0.333333 0.750000
vt 0.333333 0.812500
vt 0.333333 0.875000
vt 0.388889 0.500000
vt 0.388889 0.625000
vt 0.388889 0.750000
vt 0.388889 0.812500
vt 0.388889 0.875000
vt 0.444444 0.500000
vt 0.444444 0.625000
vt 0.444444 0.750000
vt 0.444444 0.812500
vt 0.444444 0.875000
vt 0.500000 0.500000
vt 0.500000 0.625000
vt 0.500000 0.750000
vt 0.500000 0.812500
vt 0.500000 0.875000
vt 0.555555 0.500000
vt 0.555555 0.625000
vt 0.555555 0.750000
vt 0.555555 0.812500
vt 0.555555 0.875000
vt 0.611111 0.500000
vt 0.611111 0.625000
vt 0.611111 0.750000
vt 0.611111 0.812500
vt 0.611111 0.875000
vt 0.666667 0.500000
vt 0.666666 0.625000
vt 0.666667 0.750000
vt 0.666667 0.812500
vt 0.666667 0.875000
vt 0.722222 0.500000
vt 0.722222 0.625000
vt 0.722222 0.750000
vt 0.722222 0.812500
vt 0.722222 0.875000
vt 0.777778 0.500000
vt 0.777778 0.625000
vt 0.777778 0.750000
vt 0.777778 0.812500
vt 0.777778 0.875000
vt 0.833333 0.500000
vt 0.833333 0.625000
vt 0.833333 0.750000
vt 0.833333 0.812500
vt 0.833333 0.875000
vt 0.888889 0.500000
vt 0.888889 0.625000
vt 0.888889 0.750000
vt 0.888889 0.812500
vt 0.888889 0.875000
vt 0.944444 0.500000
vt 0.944444 0.625000
vt 0.944444 0.750000
vt 0.944444 0.812500
vt 0.944444 0.875000
vt 1.000000 0.500000
vt 1.000000 0.625000
vt 1.000000 0.750000
vt 1.000000 0.812500
vt 1.000000 0.875000
vt 0.055555 0.916667
vt -0.000000 0.916667
vt 0.111111 0.916667
vt 0.166666 0.916667
vt 0.222222 0.916667
vt 0.277778 0.916667
vt 0.333333 0.916667
vt 0.388889 0.916667
vt 0.444444 0.916667
vt 0.500000 0.916667
vt 0.555555 0.916667
vt 0.611111 0.916667
vt 0.666666 0.916667
vt 0.722222 0.916667
vt 0.777778 0.916667
vt 0.833333 0.916667
vt 0.888889 0.916667
vt 0.944444 0.916667
vt 1.000000 0.916667
vn 0.0310 0.9940 0.1051
vn 0.0945 0.9907 0.0980
vn 0.1636 0.9831 0.0821
vn 0.2439 0.9683 0.0529
vn 0.3455 0.9384 -0.0004
vn 0.4860 0.8674 -0.1067
vn 0.6751 0.6543 -0.3408
vn 0.6919 0.0489 -0.7204
vn 0.2456 -0.4889 -0.8371
vn -0.2456 -0.4889 -0.8371
vn -0.6919 0.0489 -0.7204
vn -0.6751 0.6543 -0.3408
vn -0.4860 0.8674 -0.1067
vn -0.3455 0.9384 -0.0004
vn -0.2439 0.9683 0.0529
vn -0.1636 0.9831 0.0821
vn -0.0945 0.9907 0.0980
vn -0.0310 0.9940 0.1051
vn -0.0466 0.9935 0.1043
vn -0.0349 0.9939 0.1049
vn -0.0320 0.9940 0.1050
vn -0.1404 0.9859 0.0907
vn -0.1061 0.9897 0.0962
vn -0.0975 0.9904 0.0975
vn -0.2364 0.9697 0.0619
vn -0.1818 0.9803 0.0771
vn -0.1683 0.9824 0.0808
vn -0.3377 0.9412 0.0136
vn -0.2672 0.9627 0.0433
vn -0.2499 0.9669 0.0505
vn -0.4512 0.8901 -0.0647
vn -0.3718 0.9282 -0.0161
vn -0.3523 0.9359 -0.0044
vn -0.5868 0.7848 -0.1995
vn -0.5117 0.8494 -0.1295
vn -0.4926 0.8629 -0.1126
vn -0.7273 0.5224 -0.4451
vn -0.6901 0.6233 -0.3678
vn -0.6791 0.6464 -0.3478
vn -0.6553 -0.0464 -0.7539
vn -0.6831 0.0242 -0.7299
vn -0.6896 0.0425 -0.7229
vn -0.2307 -0.4962 -0.8370
vn -0.2418 -0.4907 -0.8371
vn -0.2446 -0.4893 -0.8371
vn 0.2307 -0.4962 -0.8370
vn 0.2418 -0.4907 -0.8371
vn 0.2446 -0.4893 -0.8371
vn 0.6553 -0.0464 -0.7539
vn 0.6831 0.0242 -0.7299
vn 0.6896 0.0425 -0.7229
vn 0.7273 0.5224 -0.4451
vn 0.6901 0.6233 -0.3678
vn 0.6791 0.6464 -0.3478
vn 0.5868 0.7848 -0.1995
vn 0.5117 0.8494 -0.1295
vn 0.4926 0.8629 -0.1126
vn 0.4512 0.8901 -0.0647
vn 0.3718 0.9282 -0.0161
vn 0.3523 0.9359 -0.0044
vn 0.3377 0.9412 0.0136
vn 0.2672 0.9627 0.0433
vn 0.2499 0.9669 0.0505
vn 0.2364 0.9697 0.0619
vn 0.1818 0.9803 0.0771
vn 0.1683 0.9824 0.0808
vn 0.1404 0.9859 0.0907
vn 0.1061 0.9897 0.0962
vn 0.0975 0.9904 0.0975
vn 0.0466 0.9935 0.1043
vn 0.0349 0.9939 0.1049
vn 0.0320 0.9940 0.1050
vn -0.0315 0.9940 0.1051
vn -0.0312 0.9940 0.1051
vn -0.0961 0.9906 0.0977
vn -0.0953 0.9906 0.0979
vn -0.1661 0.9827 0.0814
vn -0.1647 0.9829 0.0818
vn -0.2471 0.9676 0.0516
vn -0.2454 0.9680 0.0523
vn -0.3491 0.9371 -0.0026
vn -0.3472 0.9378 -0.0014
vn -0.4896 0.8650 -0.1099
vn -0.4876 0.8663 -0.1081
vn -0.6772 0.6501 -0.3446
vn -0.6761 0.6524 -0.3425
vn -0.6907 0.0455 -0.7217
vn -0.6913 0.0473 -0.7210
vn -0.2451 -0.4891 -0.8371
vn -0.2454 -0.4890 -0.8371
vn 0.2451 -0.4891 -0.8371
vn 0.2454 -0.4890 -0.8371
vn 0.6907 0.0455 -0.7217
vn 0.6913 0.0473 -0.7210
vn 0.6772 0.6501 -0.3446
vn 0.6761 0.6524 -0.3425
vn 0.4896 0.8650 -0.1099
vn 0.4876 0.8663 -0.1081
vn 0.3491 0.9371 -0.0026
vn 0.3472 0.9378 -0.0014
vn 0.2471 0.9676 0.0516
vn 0.2454 0.9680 0.0523
vn 0.1661 0.9827 0.0814
vn 0.1647 0.9829 0.0818
vn 0.0961 0.9906 0.0977
vn 0.0952 0.9906 0.0979
vn 0.0315 0.9940 0.1051
vn 0.0312 0.9940 0.1051
vn 0.0328 0.9939 0.1050
vn 0.0998 0.9903 0.0971
vn 0.1719 0.9819 0.0798
vn 0.2546 0.9658 0.0486
vn 0.3575 0.9339 -0.0075
vn 0.4978 0.8594 -0.1171
vn 0.6821 0.6403 -0.3532
vn 0.6879 0.0375 -0.7248
vn 0.2439 -0.4897 -0.8371
vn -0.2439 -0.4897 -0.8371
vn -0.6879 0.0375 -0.7248
vn -0.6821 0.6403 -0.3532
vn -0.4978 0.8594 -0.1171
vn -0.3575 0.9339 -0.0075
vn -0.2546 0.9658 0.0486
vn -0.1719 0.9819 0.0798
vn -0.0998 0.9903 0.0971
vn -0.0328 0.9939 0.1050
usemtl None
s off
f 92/1/1 2/2/1 4/3/1 93/4/1
f 93/4/2 4/3/2 6/5/2 95/6/2
f 95/6/3 6/5/3 8/7/3 97/8/3
f 97/8/4 8/7/4 10/9/4 99/10/4
f 99/10/5 10/9/5 12/11/5 101/12/5
f 101/12/6 12/11/6 14/13/6 103/14/6
f 103/14/7 14/13/7 16/15/7 105/16/7
f 105/16/8 16/15/8 18/17/8 107/18/8
f 107/18/9 18/17/9 20/19/9 109/20/9
f 109/20/10 20/19/10 22/21/10 111/22/10
f 111/22/11 22/21/11 24/23/11 113/24/11
f 113/24/12 24/23/12 26/25/12 115/26/12
f 115/26/13 26/25/13 28/27/13 117/28/13
f 117/28/14 28/27/14 30/29/14 119/30/14
f 119/30/15 30/29/15 32/31/15 121/32/15
f 121/32/16 32/31/16 34/33/16 123/34/16
f 123/34/17 34/33/17 36/35/17 125/36/17
f 125/36/18 36/35/18 2/37/18 92/38/18
f 35/39/19 90/40/19 37/41/19 1/42/19
f 90/40/20 89/43/20 38/44/20 37/41/20
f 144/45/21 88/46/21 39/47/21 127/48/21
f 33/49/22 87/50/22 90/40/22 35/39/22
f 87/50/23 86/51/23 89/43/23 90/40/23
f 143/52/24 85/53/24 88/46/24 144/45/24
f 31/54/25 84/55/25 87/50/25 33/49/25
f 84/55/26 83/56/26 86/51/26 87/50/26
f 142/57/27 82/58/27 85/53/27 143/52/27
f 29/59/28 81/60/28 84/55/28 31/54/28
f 81/60/29 80/61/29 83/56/29 84/55/29
f 141/62/30 79/63/30 82/58/30 142/57/30
f 27/64/31 78/65/31 81/60/31 29/59/31
f 78/65/32 77/66/32 80/61/32 81/60/32
f 140/67/33 76/68/33 79/63/33 141/62/33
f 25/69/34 75/70/34 78/65/34 27/64/34
f 75/70/35 74/71/35 77/66/35 78/65/35
f 139/72/36 73/73/36 76/68/36 140/67/36
f 23/74/37 72/75/37 75/70/37 25/69/37
f 72/75/38 71/76/38 74/71/38 75/70/38
f 138/77/39 70/78/39 73/73/39 139/72/39
f 21/79/40 69/80/40 72/75/40 23/74/40
f 69/80/41 68/81/41 71/76/41 72/75/41
f 137/82/42 67/83/42 70/78/42 138/77/42
f 19/84/43 66/85/43 69/80/43 21/79/43
f 66/85/44 65/86/44 68/81/44 69/80/44
f 136/87/45 64/88/45 67/83/45 137/82/45
f 17/89/46 63/90/46 66/85/46 19/84/46
f 63/90/47 62/91/47 65/86/47 66/85/47
f 135/92/48 61/93/48 64/88/48 136/87/48
f 15/94/49 60/95/49 63/90/49 17/89/49
f 60/95/50 59/96/50 62/91/50 63/90/50
f 134/97/51 58/98/51 61/93/51 135/92/51
f 13/99/52 57/100/52 60/95/52 15/94/52
f 57/100/53 56/101/53 59/96/53 60/95/53
f 133/102/54 55/103/54 58/98/54 134/97/54
f 11/104/55 54/105/55 57/100/55 13/99/55
f 54/105/56 53/106/56 56/101/56 57/100/56
f 132/107/57 52/108/57 55/103/57 133/102/57
f 9/109/58 51/110/58 54/105/58 11/104/58
f 51/110/59 50/111/59 53/106/59 54/105/59
f 131/112/60 49/113/60 52/108/60 132/107/60
f 7/114/61 48/115/61 51/110/61 9/109/61
f 48/115/62 47/116/62 50/111/62 51/110/62
f 130/117/63 46/118/63 49/113/63 131/112/63
f 5/119/64 45/120/64 48/115/64 7/114/64
f 45/120/65 44/121/65 47/116/65 48/115/65
f 129/122/66 43/123/66 46/118/66 130/117/66
f 3/124/67 42/125/67 45/120/67 5/119/67
f 42/125/68 41/126/68 44/121/68 45/120/68
f 128/127/69 40/128/69 43/123/69 129/122/69
f 1/129/70 37/130/70 42/125/70 3/124/70
f 37/130/71 38/131/71 41/126/71 42/125/71
f 127/132/72 39/133/72 40/128/72 128/127/72
f 88/46/73 126/134/73 91/135/73 39/47/73
f 126/134/74 125/36/74 92/38/74 91/135/74
f 85/53/75 124/136/75 126/134/75 88/46/75
f 124/136/76 123/34/76 125/36/76 126/134/76
f 82/58/77 122/137/77 124/136/77 85/53/77
f 122/137/78 121/32/78 123/34/78 124/136/78
f 79/63/79 120/138/79 122/137/79 82/58/79
f 120/138/80 119/30/80 121/32/80 122/137/80
f 76/68/81 118/139/81 120/138/81 79/63/81
f 118/139/82 117/28/82 119/30/82 120/138/82
f 73/73/83 116/140/83 118/139/83 76/68/83
f 116/140/84 115/26/84 117/28/84 118/139/84
f 70/78/85 114/141/85 116/140/85 73/73/85
f 114/141/86 113/24/86 115/26/86 116/140/86
f 67/83/87 112/142/87 114/141/87 70/78/87
f 112/142/88 111/22/88 113/24/88 114/141/88
f 64/88/89 110/143/89 112/142/89 67/83/89
f 110/143/90 109/20/90 111/22/90 112/142/90
f 61/93/91 108/144/91 110/143/91 64/88/91
f 108/144/92 107/18/92 109/20/92 110/143/92
f 58/98/93 106/145/93 108/144/93 61/93/93
f 106/145/94 105/16/94 107/18/94 108/144/94
f 55/103/95 104/146/95 106/145/95 58/98/95
f 104/146/96 103/14/96 105/16/96 106/145/96
f 52/108/97 102/147/97 104/146/97 55/103/97
f 102/147/98 101/12/98 103/14/98 104/146/98
f 49/113/99 100/148/99 102/147/99 52/108/99
f 100/148/100 99/10/100 101/12/100 102/147/100
f 46/118/101 98/149/101 100/148/101 49/113/101
f 98/149/102 97/8/102 99/10/102 100/148/102
f 43/123/103 96/150/103 98/149/103 46/118/103
f 96/150/104 95/6/104 97/8/104 98/149/104
f 40/128/105 94/151/105 96/150/105 43/123/105
f 94/151/106 93/4/106 95/6/106 96/150/106
f 39/133/107 91/152/107 94/151/107 40/128/107
f 91/152/108 92/1/108 93/4/108 94/151/108
f 38/131/109 127/132/109 128/127/109 41/126/109
f 41/126/110 128/127/110 129/122/110 44/121/110
f 44/121/111 129/122/111 130/117/111 47/116/111
f 47/116/112 130/117/112 131/112/112 50/111/112
f 50/111/113 131/112/113 132/107/113 53/106/113
f 53/106/114 132/107/114 133/102/114 56/101/114
f 56/101/115 133/102/115 134/97/115 59/96/115
f 59/96/116 134/97/116 135/92/116 62/91/116
f 62/91/117 135/92/117 136/87/117 65/86/117
f 65/86/118 136/87/118 137/82/118 68/81/118
f 68/81/119 137/82/119 138/77/119 71/76/119
f 71/76/120 138/77/120 139/72/120 74/71/120
f 74/71/121 139/72/121 140/67/121 77/66/121
f 77/66/122 140/67/122 141/62/122 80/61/122
f 80/61/123 141/62/123 142/57/123 83/56/123
f 83/56/124 142/57/124 143/52/124 86/51/124
f 86/51/125 143/52/125 144/45/125 89/43/125
f 89/43/126 144/45/126 127/48/126 38/44/126
